<svg xmlns="http://www.w3.org/2000/svg" viewBox="0 0 1200 500" width="100%" role="img" aria-labelledby="title desc">
  <title id="title">Example mention-ratio bar chart</title>
  <desc id="desc">Bar chart showing mention ratios for six dimensions in a street-view visual variable extraction example.</desc>
  <rect width="1200" height="500" fill="#ffffff"/>
  <text x="8" y="46" font-family="Arial, sans-serif" font-size="28" font-weight="700" fill="#0f172a">Example Mention Ratio by Dimension</text>
  <text x="8" y="78" font-family="Arial, sans-serif" font-size="17" fill="#475569">Street-view visual variable extraction example; 30 filtered articles.</text>

  <line x1="505" y1="112" x2="505" y2="408" stroke="#cbd5e1" stroke-width="1.5"/>
  <line x1="672" y1="112" x2="672" y2="408" stroke="#e2e8f0" stroke-width="1.5"/>
  <line x1="839" y1="112" x2="839" y2="408" stroke="#e2e8f0" stroke-width="1.5"/>
  <line x1="1006" y1="112" x2="1006" y2="408" stroke="#e2e8f0" stroke-width="1.5"/>
  <line x1="1173" y1="112" x2="1173" y2="408" stroke="#e2e8f0" stroke-width="1.5"/>

  <text x="505" y="438" text-anchor="middle" font-family="Arial, sans-serif" font-size="16" fill="#475569">0.0</text>
  <text x="672" y="438" text-anchor="middle" font-family="Arial, sans-serif" font-size="16" fill="#475569">0.2</text>
  <text x="839" y="438" text-anchor="middle" font-family="Arial, sans-serif" font-size="16" fill="#475569">0.4</text>
  <text x="1006" y="438" text-anchor="middle" font-family="Arial, sans-serif" font-size="16" fill="#475569">0.6</text>
  <text x="1173" y="438" text-anchor="middle" font-family="Arial, sans-serif" font-size="16" fill="#475569">0.8</text>
  <text x="839" y="472" text-anchor="middle" font-family="Arial, sans-serif" font-size="17" fill="#334155">Mention ratio</text>

  <text x="8" y="142" font-family="Arial, sans-serif" font-size="17" fill="#0f172a">Green, Natural, and Climate Conditions</text>
  <rect x="505" y="122" width="585" height="28" rx="5" fill="#0f766e"/>
  <text x="1110" y="142" font-family="Arial, sans-serif" font-size="17" fill="#0f172a">0.700</text>

  <text x="8" y="190" font-family="Arial, sans-serif" font-size="17" fill="#0f172a">Street Network, Mobility, and Accessibility</text>
  <rect x="505" y="170" width="390" height="28" rx="5" fill="#14b8a6"/>
  <text x="915" y="190" font-family="Arial, sans-serif" font-size="17" fill="#0f172a">0.467</text>

  <text x="8" y="238" font-family="Arial, sans-serif" font-size="17" fill="#0f172a">Land Use, Density, Functions, and Facilities</text>
  <rect x="505" y="218" width="418" height="28" rx="5" fill="#0f766e"/>
  <text x="943" y="238" font-family="Arial, sans-serif" font-size="17" fill="#0f172a">0.500</text>

  <text x="8" y="286" font-family="Arial, sans-serif" font-size="17" fill="#0f172a">Architecture, Surfaces, and Street Objects</text>
  <rect x="505" y="266" width="362" height="28" rx="5" fill="#14b8a6"/>
  <text x="887" y="286" font-family="Arial, sans-serif" font-size="17" fill="#0f172a">0.433</text>

  <text x="8" y="334" font-family="Arial, sans-serif" font-size="17" fill="#0f172a">Visual Composition, Streetscape Quality, and Spatial Openness</text>
  <rect x="505" y="314" width="418" height="28" rx="5" fill="#0f766e"/>
  <text x="943" y="334" font-family="Arial, sans-serif" font-size="17" fill="#0f172a">0.500</text>

  <text x="8" y="382" font-family="Arial, sans-serif" font-size="17" fill="#0f172a">Perceptual, Emotional, and Social Experience</text>
  <rect x="505" y="362" width="362" height="28" rx="5" fill="#14b8a6"/>
  <text x="887" y="382" font-family="Arial, sans-serif" font-size="17" fill="#0f172a">0.433</text>
</svg>
