<svg xmlns="http://www.w3.org/2000/svg" viewBox="0 0 900 390" role="img" aria-labelledby="title desc">
  <title id="title">Example mention-ratio bar chart</title>
  <desc id="desc">Bar chart showing mention ratios for six dimensions in a street-view visual variable extraction example.</desc>
  <rect width="900" height="390" fill="#ffffff"/>
  <text x="32" y="38" font-family="Arial, sans-serif" font-size="22" font-weight="700" fill="#0f172a">Example Mention Ratio by Dimension</text>
  <text x="32" y="64" font-family="Arial, sans-serif" font-size="13" fill="#475569">Street-view visual variable extraction example; 30 filtered articles.</text>
  <line x1="330" y1="88" x2="330" y2="332" stroke="#cbd5e1" stroke-width="1"/>
  <line x1="442" y1="88" x2="442" y2="332" stroke="#e2e8f0" stroke-width="1"/>
  <line x1="554" y1="88" x2="554" y2="332" stroke="#e2e8f0" stroke-width="1"/>
  <line x1="666" y1="88" x2="666" y2="332" stroke="#e2e8f0" stroke-width="1"/>
  <line x1="778" y1="88" x2="778" y2="332" stroke="#e2e8f0" stroke-width="1"/>
  <text x="330" y="354" text-anchor="middle" font-family="Arial, sans-serif" font-size="12" fill="#475569">0.0</text>
  <text x="442" y="354" text-anchor="middle" font-family="Arial, sans-serif" font-size="12" fill="#475569">0.2</text>
  <text x="554" y="354" text-anchor="middle" font-family="Arial, sans-serif" font-size="12" fill="#475569">0.4</text>
  <text x="666" y="354" text-anchor="middle" font-family="Arial, sans-serif" font-size="12" fill="#475569">0.6</text>
  <text x="778" y="354" text-anchor="middle" font-family="Arial, sans-serif" font-size="12" fill="#475569">0.8</text>
  <text x="554" y="376" text-anchor="middle" font-family="Arial, sans-serif" font-size="13" fill="#334155">Mention ratio</text>
  <text x="32" y="112" font-family="Arial, sans-serif" font-size="13" fill="#0f172a">Green, Natural, and Climate Conditions</text>
  <rect x="330" y="96" width="392" height="22" rx="4" fill="#0f766e"/>
  <text x="735" y="112" font-family="Arial, sans-serif" font-size="13" fill="#0f172a">0.700</text>
  <text x="32" y="152" font-family="Arial, sans-serif" font-size="13" fill="#0f172a">Street Network, Mobility, and Accessibility</text>
  <rect x="330" y="136" width="262" height="22" rx="4" fill="#14b8a6"/>
  <text x="605" y="152" font-family="Arial, sans-serif" font-size="13" fill="#0f172a">0.467</text>
  <text x="32" y="192" font-family="Arial, sans-serif" font-size="13" fill="#0f172a">Land Use, Density, Functions, and Facilities</text>
  <rect x="330" y="176" width="280" height="22" rx="4" fill="#0f766e"/>
  <text x="623" y="192" font-family="Arial, sans-serif" font-size="13" fill="#0f172a">0.500</text>
  <text x="32" y="232" font-family="Arial, sans-serif" font-size="13" fill="#0f172a">Architecture, Surfaces, and Street Objects</text>
  <rect x="330" y="216" width="242" height="22" rx="4" fill="#14b8a6"/>
  <text x="585" y="232" font-family="Arial, sans-serif" font-size="13" fill="#0f172a">0.433</text>
  <text x="32" y="272" font-family="Arial, sans-serif" font-size="13" fill="#0f172a">Visual Composition, Streetscape Quality, and Spatial Openness</text>
  <rect x="330" y="256" width="280" height="22" rx="4" fill="#0f766e"/>
  <text x="623" y="272" font-family="Arial, sans-serif" font-size="13" fill="#0f172a">0.500</text>
  <text x="32" y="312" font-family="Arial, sans-serif" font-size="13" fill="#0f172a">Perceptual, Emotional, and Social Experience</text>
  <rect x="330" y="296" width="242" height="22" rx="4" fill="#14b8a6"/>
  <text x="585" y="312" font-family="Arial, sans-serif" font-size="13" fill="#0f172a">0.433</text>
</svg>
