<svg xmlns="http://www.w3.org/2000/svg" viewBox="0 0 1200 500" width="100%" role="img" aria-labelledby="title desc">
  <title id="title">Example mention-ratio bar chart</title>
  <desc id="desc">Bar chart showing mention ratios for six dimensions in a street-view visual variable extraction example.</desc>
  <rect width="1200" height="500" fill="#ffffff"/>
  <text x="40" y="46" font-family="Arial, sans-serif" font-size="28" font-weight="700" fill="#0f172a">Example Mention Ratio by Dimension</text>
  <text x="40" y="78" font-family="Arial, sans-serif" font-size="17" fill="#475569">Street-view visual variable extraction example; 30 filtered articles.</text>

  <line x1="520" y1="112" x2="520" y2="408" stroke="#cbd5e1" stroke-width="1.5"/>
  <line x1="662" y1="112" x2="662" y2="408" stroke="#e2e8f0" stroke-width="1.5"/>
  <line x1="804" y1="112" x2="804" y2="408" stroke="#e2e8f0" stroke-width="1.5"/>
  <line x1="946" y1="112" x2="946" y2="408" stroke="#e2e8f0" stroke-width="1.5"/>
  <line x1="1088" y1="112" x2="1088" y2="408" stroke="#e2e8f0" stroke-width="1.5"/>

  <text x="520" y="438" text-anchor="middle" font-family="Arial, sans-serif" font-size="16" fill="#475569">0.0</text>
  <text x="662" y="438" text-anchor="middle" font-family="Arial, sans-serif" font-size="16" fill="#475569">0.2</text>
  <text x="804" y="438" text-anchor="middle" font-family="Arial, sans-serif" font-size="16" fill="#475569">0.4</text>
  <text x="946" y="438" text-anchor="middle" font-family="Arial, sans-serif" font-size="16" fill="#475569">0.6</text>
  <text x="1088" y="438" text-anchor="middle" font-family="Arial, sans-serif" font-size="16" fill="#475569">0.8</text>
  <text x="804" y="472" text-anchor="middle" font-family="Arial, sans-serif" font-size="17" fill="#334155">Mention ratio</text>

  <text x="40" y="142" font-family="Arial, sans-serif" font-size="17" fill="#0f172a">Green, Natural, and Climate Conditions</text>
  <rect x="520" y="122" width="497" height="28" rx="5" fill="#0f766e"/>
  <text x="1034" y="142" font-family="Arial, sans-serif" font-size="17" fill="#0f172a">0.700</text>

  <text x="40" y="190" font-family="Arial, sans-serif" font-size="17" fill="#0f172a">Street Network, Mobility, and Accessibility</text>
  <rect x="520" y="170" width="332" height="28" rx="5" fill="#14b8a6"/>
  <text x="869" y="190" font-family="Arial, sans-serif" font-size="17" fill="#0f172a">0.467</text>

  <text x="40" y="238" font-family="Arial, sans-serif" font-size="17" fill="#0f172a">Land Use, Density, Functions, and Facilities</text>
  <rect x="520" y="218" width="355" height="28" rx="5" fill="#0f766e"/>
  <text x="892" y="238" font-family="Arial, sans-serif" font-size="17" fill="#0f172a">0.500</text>

  <text x="40" y="286" font-family="Arial, sans-serif" font-size="17" fill="#0f172a">Architecture, Surfaces, and Street Objects</text>
  <rect x="520" y="266" width="307" height="28" rx="5" fill="#14b8a6"/>
  <text x="844" y="286" font-family="Arial, sans-serif" font-size="17" fill="#0f172a">0.433</text>

  <text x="40" y="334" font-family="Arial, sans-serif" font-size="17" fill="#0f172a">Visual Composition, Streetscape Quality, and Spatial Openness</text>
  <rect x="520" y="314" width="355" height="28" rx="5" fill="#0f766e"/>
  <text x="892" y="334" font-family="Arial, sans-serif" font-size="17" fill="#0f172a">0.500</text>

  <text x="40" y="382" font-family="Arial, sans-serif" font-size="17" fill="#0f172a">Perceptual, Emotional, and Social Experience</text>
  <rect x="520" y="362" width="307" height="28" rx="5" fill="#14b8a6"/>
  <text x="844" y="382" font-family="Arial, sans-serif" font-size="17" fill="#0f172a">0.433</text>
</svg>
